HIERARCHY
ROOT root
{
	OFFSET 0.000000 0.000000 0.000000
	CHANNELS 6 Xposition Yposition Zposition Zrotation Yrotation Xrotation
	JOINT lhip
	{
		OFFSET 0.058581 -0.082280 -0.017664
		CHANNELS 3 Zrotation Yrotation Xrotation
		JOINT lknee
		{
			OFFSET 0.043451 -0.386469 0.008037
			CHANNELS 3 Zrotation Yrotation Xrotation
			JOINT lankle
			{
				OFFSET -0.014790 -0.426874 -0.037428
				CHANNELS 3 Zrotation Yrotation Xrotation
				JOINT ltoe
				{
					OFFSET 0.041054 -0.060286 0.122042
					CHANNELS 3 Zrotation Yrotation Xrotation
					End Site
					{
						OFFSET 0.000000 0.000000 0.000000
					}
				}
			}
		}
	}
	JOINT rhip
	{
		OFFSET -0.060310 -0.090513 -0.013543
		CHANNELS 3 Zrotation Yrotation Xrotation
		JOINT rknee
		{
			OFFSET -0.043257 -0.383688 -0.004843
			CHANNELS 3 Zrotation Yrotation Xrotation
			JOINT rankle
			{
				OFFSET 0.019056 -0.420046 -0.034562
				CHANNELS 3 Zrotation Yrotation Xrotation
				JOINT rtoe
				{
					OFFSET -0.034840 -0.062106 0.130323
					CHANNELS 3 Zrotation Yrotation Xrotation
					End Site
					{
						OFFSET 0.000000 0.000000 0.000000
					}
				}
			}
		}
	}
	JOINT lowerback
	{
		OFFSET 0.004439 0.124404 -0.038385
		CHANNELS 3 Zrotation Yrotation Xrotation
		JOINT upperback
		{
			OFFSET 0.004488 0.137956 0.026820
			CHANNELS 3 Zrotation Yrotation Xrotation
			JOINT chest
			{
				OFFSET -0.002265 0.056032 0.002855
				CHANNELS 3 Zrotation Yrotation Xrotation
				JOINT lowerneck
				{
					OFFSET -0.013390 0.211636 -0.033468
					CHANNELS 3 Zrotation Yrotation Xrotation
					JOINT upperneck
					{
						OFFSET 0.010113 0.088937 0.050410
						CHANNELS 3 Zrotation Yrotation Xrotation
						End Site
						{
							OFFSET 0.000000 0.000000 0.000000
						}
					}
				}
				JOINT lclavicle
				{
					OFFSET 0.071702 0.114000 -0.018898
					CHANNELS 3 Zrotation Yrotation Xrotation
					JOINT lshoulder
					{
						OFFSET 0.122921 0.045205 -0.019046
						CHANNELS 3 Zrotation Yrotation Xrotation
						JOINT lelbow
						{
							OFFSET 0.255332 -0.015649 -0.022946
							CHANNELS 3 Zrotation Yrotation Xrotation
							JOINT lwrist
							{
								OFFSET 0.265709 0.012698 -0.007375
								CHANNELS 3 Zrotation Yrotation Xrotation
								End Site
								{
									OFFSET 0.000000 0.000000 0.000000
								}
							}
						}
					}
				}
				JOINT rclavicle
				{
					OFFSET -0.082954 0.112472 -0.023707
					CHANNELS 3 Zrotation Yrotation Xrotation
					JOINT rshoulder
					{
						OFFSET -0.113228 0.046853 -0.008472
						CHANNELS 3 Zrotation Yrotation Xrotation
						JOINT relbow
						{
							OFFSET -0.260127 -0.014369 -0.031269
							CHANNELS 3 Zrotation Yrotation Xrotation
							JOINT rwrist
							{
								OFFSET -0.269108 0.006794 -0.006027
								CHANNELS 3 Zrotation Yrotation Xrotation
								End Site
								{
									OFFSET 0.000000 0.000000 0.000000
								}
							}
						}
					}
				}
			}
		}
	}
}
MOTION
Frames: 17
Frame Time: 0.033333
-1.726466 0.258464 1.004812 80.985250 -2.874658 91.107691 -1.642433 -6.013192 -22.829043 -3.517791 2.143798 0.181605 -1.636652 7.170321 -0.422351 0.000000 -0.000000 0.000000 -2.711696 -4.474883 10.517278 -1.362864 4.996069 14.770093 3.749458 -8.167941 -16.443181 0.000000 -0.000000 0.000000 -1.747533 10.228212 16.650913 -1.631583 3.361975 -1.985166 0.036507 2.022653 3.390699 -3.016151 11.195760 -11.870723 -4.433335 1.768492 10.782673 -27.351935 6.175544 0.655372 -51.649639 -2.866914 10.626698 7.043008 -26.811950 6.867436 -5.747672 -4.617972 -7.485039 31.251924 4.259284 3.429744 48.236422 12.513115 10.325846 -7.188176 0.468648 -14.879817 8.145361 -0.101651 -5.322055 
-1.699827 0.261423 1.002833 80.634132 -2.870723 91.868851 -2.285908 -6.666338 -22.259967 -3.399692 1.440590 0.629256 -0.720102 6.549447 1.669155 0.000000 -0.000000 0.000000 -3.255689 -4.054426 10.525919 -1.405035 5.412959 16.126795 4.511043 -7.987646 -14.387598 0.000000 -0.000000 0.000000 -2.330176 10.503466 15.549319 -1.691859 3.538180 -2.420807 -0.132030 2.081622 3.185112 -2.793093 10.997350 -11.246471 -4.106068 2.091076 10.642485 -27.291335 6.700050 0.683169 -51.436895 -2.611675 10.627432 6.884751 -25.943682 7.040088 -6.522459 -4.630906 -7.581534 31.435780 3.675401 3.314882 48.265043 12.284832 10.667276 -7.463850 0.868116 -15.035774 8.775324 -0.065535 -5.391697 
-1.672519 0.265349 1.003465 81.197041 -3.312949 92.242072 -3.301772 -7.383261 -21.817254 -3.588566 0.433920 1.411134 -0.330351 6.681895 4.339315 0.000000 -0.000000 0.000000 -4.037725 -3.829048 10.578771 -1.728673 4.887130 18.151126 5.261023 -7.603781 -11.404665 0.000000 -0.000000 0.000000 -2.649027 10.318951 15.015669 -1.956101 3.080080 -2.479381 -0.595002 2.272673 2.875817 -2.778936 10.657293 -10.649361 -3.804327 2.417168 10.472629 -27.240943 6.516160 0.796856 -51.005381 -2.558491 10.664594 6.775606 -25.033115 6.794206 -7.225475 -4.479595 -7.031659 31.490802 3.670450 3.484149 48.551690 12.229607 10.737395 -7.764867 0.745503 -15.455652 9.323978 0.064302 -5.426346 
-1.643471 0.269879 1.005705 81.650741 -3.731590 92.155380 -3.864234 -7.976377 -21.045223 -4.456610 0.188105 3.271945 0.267266 6.589015 3.504031 0.000000 -0.000000 0.000000 -4.865508 -3.737139 9.924741 -1.920410 4.835605 22.197368 6.209216 -7.536085 -7.682241 0.000000 -0.000000 0.000000 -3.110096 10.658674 14.394687 -1.918159 3.362970 -2.178938 -0.755498 2.213799 2.884281 -2.621398 10.039453 -10.417084 -3.565445 2.539252 10.724600 -27.228610 5.834837 0.784293 -50.987638 -3.177207 10.802014 6.914591 -24.109634 6.934417 -7.858475 -4.417336 -6.217767 31.380593 3.540170 3.327468 48.526439 11.777402 10.833621 -8.043872 0.502488 -16.111781 9.692771 0.156798 -5.599567 
-1.613466 0.274664 1.009329 82.123811 -4.091158 91.650724 -4.766075 -8.413230 -19.348062 -5.318681 -1.343302 4.841246 1.257188 6.956113 1.591969 0.000000 -0.000000 0.000000 -5.685011 -3.448894 8.572336 -1.885311 4.773846 27.716490 6.693219 -7.378745 -1.939667 0.000000 -0.000000 0.000000 -3.342863 10.566858 14.202167 -1.968553 3.675284 -2.057112 -0.996444 2.358092 2.976151 -2.281286 9.232225 -9.999624 -3.273795 2.665877 11.111250 -27.134204 5.546912 0.408174 -50.892593 -3.745088 10.928210 6.954073 -24.229388 7.162603 -8.077101 -3.881503 -5.462111 31.370178 3.397891 3.105248 48.311461 11.345461 10.857739 -8.313262 0.645872 -17.156493 9.967867 0.127913 -5.846338 
-1.583843 0.279675 1.012915 82.581734 -4.176901 90.944423 -6.035634 -8.439324 -16.418099 -5.561434 -2.520169 4.696043 2.975609 7.268659 0.161276 0.000000 -0.000000 0.000000 -6.010801 -2.715559 5.580830 -1.539761 5.045701 35.563681 7.030662 -7.402610 5.671125 0.000000 -0.000000 0.000000 -3.599986 9.815766 13.936298 -1.743672 4.355749 -1.932286 -1.143343 2.492132 3.116686 -1.859315 8.497464 -9.090770 -3.078582 3.252418 11.633215 -27.050083 5.611970 0.321950 -50.809506 -4.345823 11.048322 6.883436 -25.476272 7.143405 -8.627529 -3.626006 -5.323874 31.099008 3.074024 2.703256 48.133580 11.210968 11.060377 -8.787681 0.882045 -18.346430 10.654479 0.295941 -5.743262 
-1.555436 0.283644 1.015249 83.486330 -4.109201 90.199650 -7.431034 -7.928220 -13.202405 -5.439791 -4.406310 3.864011 4.898513 7.930440 -0.504627 0.000000 -0.000000 0.000000 -5.682296 -1.769490 1.865660 -1.024361 5.366216 44.011703 6.354887 -7.858577 11.570776 0.000000 -0.000000 0.000000 -3.975476 8.550738 13.943054 -1.351185 4.739090 -2.258769 -1.170417 2.160163 3.315087 -1.085950 8.037233 -8.123202 -3.106424 3.830869 12.397995 -26.560608 5.857344 0.722514 -50.971409 -4.790446 11.118763 6.858286 -27.442357 7.075556 -9.039019 -3.991247 -6.397351 30.599906 2.922677 2.151186 47.994387 11.416363 11.470546 -9.072354 1.295963 -19.035794 11.225547 0.338543 -6.096490 
-1.527278 0.287088 1.017026 84.880954 -4.257044 88.882194 -8.655742 -7.475694 -9.705989 -5.748508 -6.474340 3.818622 5.943497 8.549444 -1.610040 0.000000 -0.000000 0.000000 -5.623585 -0.951255 -1.167338 -0.364285 4.691480 51.433407 5.389828 -9.517778 12.192824 0.000000 -0.000000 0.000000 -4.377000 7.160875 14.370719 -1.079616 4.573840 -2.379328 -1.387593 1.610146 3.593025 0.068351 8.132316 -6.936536 -3.199994 4.102291 12.987805 -26.109867 5.726342 1.258447 -50.311866 -5.356429 11.061209 6.297580 -29.691760 7.095687 -8.981790 -4.382388 -7.746741 30.498516 3.021552 1.449025 47.623861 11.323419 11.953387 -9.394348 2.513876 -19.029071 11.504121 0.294152 -6.177295 
-1.500575 0.289900 1.019559 86.869554 -4.122490 87.461985 -9.388004 -6.688925 -6.435134 -6.155570 -8.835392 4.232795 6.010260 8.856085 -2.872896 0.000000 -0.000000 0.000000 -5.304095 -0.622761 -3.864326 -0.427529 3.057064 56.831157 5.283112 -10.303065 8.436536 0.000000 -0.000000 0.000000 -4.369563 5.599969 14.990532 -0.795282 4.039851 -2.324439 -1.631751 1.050697 3.697455 1.067929 8.506024 -5.635688 -3.197969 3.957351 13.583340 -25.891666 4.832192 1.402059 -49.402739 -5.948193 11.180701 5.700076 -31.166194 7.114563 -8.768565 -4.501109 -8.111000 30.483004 3.354270 0.930266 47.037864 11.175019 11.773994 -9.548931 3.632324 -19.087299 11.710461 0.322279 -6.419243 
-1.474868 0.291993 1.022417 88.994472 -3.652485 86.217661 -9.705163 -5.501157 -3.346775 -6.221712 -11.323945 4.598053 6.029378 8.617783 -3.832918 0.000000 -0.000000 0.000000 -4.732673 -0.335527 -6.483775 -0.781121 1.454070 59.588251 5.080690 -10.711571 4.930036 0.000000 -0.000000 0.000000 -3.961712 4.124555 15.359978 -0.552066 3.615895 -2.199515 -1.840085 0.427471 3.709605 1.887575 8.765188 -4.019260 -3.052283 3.804641 14.175132 -25.597856 3.394506 1.579400 -48.709165 -7.041740 11.234197 5.442088 -31.669272 7.208472 -8.877987 -4.150164 -7.326077 30.185159 3.742028 0.589916 46.786640 10.711421 11.393706 -9.513408 4.274080 -19.172638 12.088729 0.661815 -6.711357 
-1.450998 0.293342 1.024464 91.029639 -3.096248 85.239068 -9.693817 -4.723383 -0.582092 -6.226789 -13.631429 4.697977 6.138329 8.716083 -4.505243 0.000000 -0.000000 0.000000 -4.322968 0.143875 -9.648376 -0.651394 0.147274 60.865177 5.047689 -11.429766 1.748552 0.000000 -0.000000 0.000000 -3.690625 2.642427 15.596445 -0.261255 3.326866 -2.259553 -1.878605 -0.262061 3.887832 2.577175 9.304141 -2.736078 -3.002014 3.739632 15.146108 -25.223281 2.309555 1.416170 -48.299531 -8.579626 11.327950 5.441902 -31.907589 7.188148 -8.582719 -3.761609 -6.142680 29.929980 3.684580 -0.022870 46.781559 10.398351 11.334340 -9.733699 4.991818 -19.113728 12.366305 0.856190 -6.588979 
-1.433303 0.293963 1.025903 92.310215 -2.719840 84.526558 -9.563437 -3.967374 1.748095 -6.081848 -15.059703 4.163448 6.202574 8.581075 -4.844663 0.000000 -0.000000 0.000000 -4.225071 0.427331 -11.854343 -0.845235 -0.672678 60.453645 5.206369 -11.647476 -1.094829 0.000000 -0.000000 0.000000 -3.531476 1.603121 15.924735 -0.052408 2.893448 -2.363308 -1.911304 -0.633826 3.829849 3.093451 9.604678 -1.746441 -2.926615 3.546004 15.688873 -24.913952 1.853961 1.170802 -47.977383 -9.493830 11.336720 5.536789 -32.470184 7.177496 -8.291217 -3.340774 -5.501072 29.924473 3.692696 -0.201537 46.780020 10.209434 11.269957 -9.998363 5.613802 -19.052926 12.623711 0.876974 -6.420991 
-1.410606 0.294174 1.027277 93.975219 -2.018660 83.494227 -9.062007 -2.868090 4.896865 -5.756562 -17.123536 3.675008 6.178951 8.196018 -5.350704 0.000000 -0.000000 0.000000 -4.128691 0.891644 -14.353532 -0.810131 -1.738766 58.062729 5.713663 -11.525980 -3.512056 0.000000 -0.000000 0.000000 -3.283990 0.226267 16.744660 0.206860 2.572837 -2.575974 -1.705659 -1.256779 3.733494 3.511069 10.071752 -0.631535 -2.810223 3.479082 16.290302 -24.500648 1.089113 1.305293 -47.682942 -10.877003 11.162354 5.913763 -33.346396 6.497926 -7.544226 -3.237030 -5.114191 29.844706 3.618775 -0.626085 46.923400 9.769210 11.233181 -10.436842 6.896417 -19.019884 12.486256 1.170394 -6.335476 
-1.389857 0.293583 1.027778 95.151351 -1.411819 82.863900 -8.400295 -1.943626 7.397173 -5.618275 -18.906822 3.300499 6.196502 7.949114 -5.960525 0.000000 -0.000000 0.000000 -4.250104 1.290183 -17.238191 -0.406539 -2.209470 54.436594 6.476082 -10.833007 -4.991665 0.000000 -0.000000 0.000000 -3.193307 -0.887148 17.153053 0.513867 2.203871 -2.366646 -1.432138 -1.766174 3.657473 3.744324 10.742596 0.042055 -2.701161 3.439088 16.640899 -24.146103 0.185160 1.195163 -47.310139 -12.363728 11.029112 6.352878 -33.910365 5.261231 -6.847068 -3.319576 -5.261129 29.891039 3.731369 -0.687347 47.073075 9.879248 11.347748 -11.057735 8.271888 -19.025176 12.217460 1.396165 -6.676412 
-1.369982 0.292619 1.027883 96.133915 -0.867009 82.453837 -7.769757 -1.263906 9.288283 -5.528704 -20.388991 3.496017 6.306529 7.672324 -6.578153 0.000000 -0.000000 0.000000 -4.441327 1.360591 -19.817235 -0.380192 -2.581135 49.548733 7.135323 -10.232566 -5.813225 0.000000 -0.000000 0.000000 -3.104184 -1.688775 17.828497 0.750645 1.867796 -2.509144 -1.080025 -2.270697 3.479077 3.882774 11.102033 0.409491 -2.483930 3.289067 16.982703 -23.606234 -0.649451 1.237696 -47.135420 -13.856785 10.919507 6.661574 -34.444028 4.078898 -5.827557 -3.682799 -5.771498 29.946126 3.887650 -0.800427 47.270775 9.991412 11.502401 -11.555208 9.453248 -19.033205 11.712824 1.596894 -6.837170 
-1.345276 0.291102 1.027082 96.379607 -0.215928 81.889298 -7.122414 -0.714692 11.523906 -5.260892 -21.213470 3.971175 6.408780 7.517864 -7.817053 0.000000 -0.000000 0.000000 -4.336531 1.616851 -22.066181 -0.555958 -2.901758 41.690920 7.788164 -9.839866 -5.567115 0.000000 -0.000000 0.000000 -2.909208 -2.153620 18.651512 0.969735 1.903867 -2.436697 -0.539059 -2.707601 3.328276 3.839308 11.357629 0.764899 -2.138695 3.368540 17.309578 -23.202594 -2.021999 1.417199 -46.907619 -15.701136 10.739213 7.223652 -34.832715 2.676771 -5.013147 -3.968381 -5.927681 29.862443 4.075637 -1.028897 47.549286 10.221801 11.697431 -12.269102 11.037331 -19.075732 11.149237 1.685995 -7.016479 
-1.325014 0.289711 1.025494 96.571568 0.053016 82.021692 -6.629350 -0.074147 12.816500 -5.163907 -22.034210 4.053273 6.487190 7.248255 -8.467487 0.000000 -0.000000 0.000000 -4.494898 1.145981 -23.419558 -0.578302 -3.755307 33.973065 8.488206 -9.248536 -3.980148 0.000000 -0.000000 0.000000 -2.675520 -2.705823 18.867860 0.901836 1.484395 -2.633908 -0.326594 -2.856625 3.100781 3.798224 11.559605 1.329105 -1.734883 3.531483 17.437530 -22.833254 -2.587054 1.393700 -46.602003 -16.668700 10.644296 7.287334 -35.153488 2.383875 -4.617028 -4.105112 -5.846150 30.134210 4.415207 -0.739722 47.792238 10.720388 11.793905 -12.967531 11.949242 -19.135988 10.412837 1.783962 -6.951019 
